<svg xmlns="http://www.w3.org/2000/svg" viewBox="0 0 120 168" width="120" height="168"><defs><linearGradient id="bg" x1="0" y1="0" x2="0.6" y2="1"><stop offset="0" stop-color="#36b875"/><stop offset="1" stop-color="#0d5530"/></linearGradient><radialGradient id="vg" cx="0.5" cy="0.45" r="0.75"><stop offset="0.55" stop-color="#000000" stop-opacity="0"/><stop offset="1" stop-color="#000000" stop-opacity="0.32"/></radialGradient><clipPath id="k"><rect width="120" height="168"/></clipPath></defs><g clip-path="url(#k)"><rect width="120" height="168" fill="url(#bg)"/><polygon points="92,128 312.0,128.0 309.9,158.6" fill="#ffffff" fill-opacity="0.06"/><polygon points="92,128 298.7,203.2 286.2,231.3" fill="#ffffff" fill-opacity="0.06"/><polygon points="92,128 260.5,269.4 239.2,291.5" fill="#ffffff" fill-opacity="0.06"/><polygon points="92,128 202.0,318.5 174.4,332.0" fill="#ffffff" fill-opacity="0.06"/><polygon points="92,128 130.2,344.7 99.7,347.9" fill="#ffffff" fill-opacity="0.06"/><polygon points="92,128 53.8,344.7 24.0,337.2" fill="#ffffff" fill-opacity="0.06"/><polygon points="92,128 -18.0,318.5 -43.4,301.4" fill="#ffffff" fill-opacity="0.06"/><polygon points="92,128 -76.5,269.4 -94.6,244.6" fill="#ffffff" fill-opacity="0.06"/><polygon points="92,128 -114.7,203.2 -123.2,173.7" fill="#ffffff" fill-opacity="0.06"/><polygon points="92,128 -128.0,128.0 -125.9,97.4" fill="#ffffff" fill-opacity="0.06"/><polygon points="92,128 -114.7,52.8 -102.2,24.7" fill="#ffffff" fill-opacity="0.06"/><polygon points="92,128 -76.5,-13.4 -55.2,-35.5" fill="#ffffff" fill-opacity="0.06"/><polygon points="92,128 -18.0,-62.5 9.6,-76.0" fill="#ffffff" fill-opacity="0.06"/><polygon points="92,128 53.8,-88.7 84.3,-91.9" fill="#ffffff" fill-opacity="0.06"/><polygon points="92,128 130.2,-88.7 160.0,-81.2" fill="#ffffff" fill-opacity="0.06"/><polygon points="92,128 202.0,-62.5 227.4,-45.4" fill="#ffffff" fill-opacity="0.06"/><polygon points="92,128 260.5,-13.4 278.6,11.4" fill="#ffffff" fill-opacity="0.06"/><polygon points="92,128 298.7,52.8 307.2,82.3" fill="#ffffff" fill-opacity="0.06"/><g opacity="0.42"><defs><linearGradient id="tw" x1="0" y1="0" x2="1" y2="1"><stop offset="0" stop-color="#89dbaf"/><stop offset="1" stop-color="#36b073"/></linearGradient></defs><polygon points="77.04,94.00 106.96,94.00 97.78,108.62 82.82,108.62" fill="#71cf9e"/><polygon points="106.96,94.00 116.48,103.52 102.54,113.38 97.78,108.62" fill="#3fb47a"/><polygon points="116.48,103.52 116.48,152.48 102.54,137.86 102.54,113.38" fill="#167a49"/><polygon points="116.48,152.48 106.96,162.00 97.78,142.62 102.54,137.86" fill="#106139"/><polygon points="106.96,162.00 77.04,162.00 82.82,142.62 97.78,142.62" fill="#147042"/><polygon points="77.04,162.00 67.52,152.48 78.06,137.86 82.82,142.62" fill="#1b9056"/><polygon points="67.52,152.48 67.52,103.52 78.06,113.38 78.06,137.86" fill="#61c692"/><polygon points="67.52,103.52 77.04,94.00 82.82,108.62 78.06,113.38" fill="#88daae"/><polygon points="82.82,108.62 97.78,108.62 102.54,113.38 102.54,137.86 97.78,142.62 82.82,142.62 78.06,137.86 78.06,113.38" fill="url(#tw)"/><line x1="77.04" y1="94.00" x2="82.82" y2="108.62" stroke="#0a4f2d" stroke-opacity="0.35" stroke-width="0.85"/><line x1="106.96" y1="94.00" x2="97.78" y2="108.62" stroke="#0a4f2d" stroke-opacity="0.35" stroke-width="0.85"/><line x1="116.48" y1="103.52" x2="102.54" y2="113.38" stroke="#0a4f2d" stroke-opacity="0.35" stroke-width="0.85"/><line x1="116.48" y1="152.48" x2="102.54" y2="137.86" stroke="#0a4f2d" stroke-opacity="0.35" stroke-width="0.85"/><line x1="106.96" y1="162.00" x2="97.78" y2="142.62" stroke="#0a4f2d" stroke-opacity="0.35" stroke-width="0.85"/><line x1="77.04" y1="162.00" x2="82.82" y2="142.62" stroke="#0a4f2d" stroke-opacity="0.35" stroke-width="0.85"/><line x1="67.52" y1="152.48" x2="78.06" y2="137.86" stroke="#0a4f2d" stroke-opacity="0.35" stroke-width="0.85"/><line x1="67.52" y1="103.52" x2="78.06" y2="113.38" stroke="#0a4f2d" stroke-opacity="0.35" stroke-width="0.85"/><polygon points="82.82,108.62 97.78,108.62 102.54,113.38 102.54,137.86 97.78,142.62 82.82,142.62 78.06,137.86 78.06,113.38" fill="none" stroke="#ffffff" stroke-opacity="0.45" stroke-width="1.02"/><polygon points="77.04,94.00 106.96,94.00 116.48,103.52 116.48,152.48 106.96,162.00 77.04,162.00 67.52,152.48 67.52,103.52" fill="none" stroke="#0a4f2d" stroke-width="2.38" stroke-linejoin="round"/><path d="M84.18,114.74 Q84.18,120.18 89.62,120.18 Q84.18,120.18 84.18,125.62 Q84.18,120.18 78.74,120.18 Q84.18,120.18 84.18,114.74Z" fill="#ffffff" fill-opacity="0.9"/></g><rect width="120" height="168" fill="url(#vg)"/></g><rect x="4" y="4" width="112" height="160" rx="6" fill="none" stroke="#ffffff" stroke-opacity="0.35" stroke-width="1"/></svg>
