<svg xmlns="http://www.w3.org/2000/svg" viewBox="0 0 100 100" width="100" height="100"><defs><radialGradient id="c" cx="0.4" cy="0.35" r="0.75"><stop offset="0" stop-color="#80758c"/><stop offset="1" stop-color="#4a4152"/></radialGradient></defs><circle cx="50" cy="51.5" r="47" fill="#000000" fill-opacity="0.25"/><circle cx="50" cy="50" r="47" fill="#403847"/><rect x="45" y="3.5" width="10" height="11" rx="2" fill="#ffffff" fill-opacity="0.9" transform="rotate(0.0 50 50)"/><rect x="45" y="3.5" width="10" height="11" rx="2" fill="#ffffff" fill-opacity="0.9" transform="rotate(45.0 50 50)"/><rect x="45" y="3.5" width="10" height="11" rx="2" fill="#ffffff" fill-opacity="0.9" transform="rotate(90.0 50 50)"/><rect x="45" y="3.5" width="10" height="11" rx="2" fill="#ffffff" fill-opacity="0.9" transform="rotate(135.0 50 50)"/><rect x="45" y="3.5" width="10" height="11" rx="2" fill="#ffffff" fill-opacity="0.9" transform="rotate(180.0 50 50)"/><rect x="45" y="3.5" width="10" height="11" rx="2" fill="#ffffff" fill-opacity="0.9" transform="rotate(225.0 50 50)"/><rect x="45" y="3.5" width="10" height="11" rx="2" fill="#ffffff" fill-opacity="0.9" transform="rotate(270.0 50 50)"/><rect x="45" y="3.5" width="10" height="11" rx="2" fill="#ffffff" fill-opacity="0.9" transform="rotate(315.0 50 50)"/><circle cx="50" cy="50" r="34" fill="url(#c)"/><circle cx="50" cy="50" r="34" fill="none" stroke="#ffffff" stroke-opacity="0.75" stroke-width="1.6" stroke-dasharray="3 3"/><circle cx="50" cy="50" r="38.5" fill="none" stroke="#120e16" stroke-opacity="0.45" stroke-width="1.2"/><defs><linearGradient id="tg" x1="0" y1="0" x2="1" y2="1"><stop offset="0" stop-color="#aa9db6"/><stop offset="1" stop-color="#695e73"/></linearGradient></defs><polygon points="66.97,66.97 33.03,66.97 40.51,57.09 57.49,57.09" fill="#332c39"/><polygon points="33.03,66.97 33.03,33.03 40.51,40.11 40.51,57.09" fill="#8a7e96"/><polygon points="33.03,33.03 66.97,33.03 57.49,40.11 40.51,40.11" fill="#978ba4"/><polygon points="66.97,33.03 66.97,66.97 57.49,57.09 57.49,40.11" fill="#3a3341"/><polygon points="57.49,57.09 40.51,57.09 40.51,40.11 57.49,40.11" fill="url(#tg)"/><line x1="66.97" y1="66.97" x2="57.49" y2="57.09" stroke="#120e16" stroke-opacity="0.35" stroke-width="0.50"/><line x1="33.03" y1="66.97" x2="40.51" y2="57.09" stroke="#120e16" stroke-opacity="0.35" stroke-width="0.50"/><line x1="33.03" y1="33.03" x2="40.51" y2="40.11" stroke="#120e16" stroke-opacity="0.35" stroke-width="0.50"/><line x1="66.97" y1="33.03" x2="57.49" y2="40.11" stroke="#120e16" stroke-opacity="0.35" stroke-width="0.50"/><polygon points="57.49,57.09 40.51,57.09 40.51,40.11 57.49,40.11" fill="none" stroke="#ffffff" stroke-opacity="0.45" stroke-width="0.60"/><polygon points="66.97,66.97 33.03,66.97 33.03,33.03 66.97,33.03" fill="none" stroke="#120e16" stroke-width="1.40" stroke-linejoin="round"/><path d="M45.40,42.20 Q45.40,45.40 48.60,45.40 Q45.40,45.40 45.40,48.60 Q45.40,45.40 42.20,45.40 Q45.40,45.40 45.40,42.20Z" fill="#ffffff" fill-opacity="0.9"/><ellipse cx="42" cy="26" rx="22" ry="9" fill="#ffffff" fill-opacity="0.13"/></svg>
