<svg xmlns="http://www.w3.org/2000/svg" viewBox="0 0 100 100" width="100" height="100"><defs><radialGradient id="c" cx="0.4" cy="0.35" r="0.75"><stop offset="0" stop-color="#f8cc47"/><stop offset="1" stop-color="#e0a508"/></radialGradient></defs><circle cx="50" cy="51.5" r="47" fill="#000000" fill-opacity="0.25"/><circle cx="50" cy="50" r="47" fill="#d09706"/><rect x="45" y="3.5" width="10" height="11" rx="2" fill="#ffffff" fill-opacity="0.9" transform="rotate(0.0 50 50)"/><rect x="45" y="3.5" width="10" height="11" rx="2" fill="#ffffff" fill-opacity="0.9" transform="rotate(45.0 50 50)"/><rect x="45" y="3.5" width="10" height="11" rx="2" fill="#ffffff" fill-opacity="0.9" transform="rotate(90.0 50 50)"/><rect x="45" y="3.5" width="10" height="11" rx="2" fill="#ffffff" fill-opacity="0.9" transform="rotate(135.0 50 50)"/><rect x="45" y="3.5" width="10" height="11" rx="2" fill="#ffffff" fill-opacity="0.9" transform="rotate(180.0 50 50)"/><rect x="45" y="3.5" width="10" height="11" rx="2" fill="#ffffff" fill-opacity="0.9" transform="rotate(225.0 50 50)"/><rect x="45" y="3.5" width="10" height="11" rx="2" fill="#ffffff" fill-opacity="0.9" transform="rotate(270.0 50 50)"/><rect x="45" y="3.5" width="10" height="11" rx="2" fill="#ffffff" fill-opacity="0.9" transform="rotate(315.0 50 50)"/><circle cx="50" cy="50" r="34" fill="url(#c)"/><circle cx="50" cy="50" r="34" fill="none" stroke="#ffffff" stroke-opacity="0.75" stroke-width="1.6" stroke-dasharray="3 3"/><circle cx="50" cy="50" r="38.5" fill="none" stroke="#7a4f00" stroke-opacity="0.45" stroke-width="1.2"/><defs><linearGradient id="tg" x1="0" y1="0" x2="1" y2="1"><stop offset="0" stop-color="#fce084"/><stop offset="1" stop-color="#f6c124"/></linearGradient></defs><polygon points="50.00,30.00 69.02,43.82 58.51,45.51 49.00,38.60" fill="#f7c32a"/><polygon points="69.02,43.82 61.76,66.18 54.88,56.69 58.51,45.51" fill="#b78104"/><polygon points="61.76,66.18 38.24,66.18 43.12,56.69 54.88,56.69" fill="#bb8505"/><polygon points="38.24,66.18 30.98,43.82 39.49,45.51 43.12,56.69" fill="#f7c634"/><polygon points="30.98,43.82 50.00,30.00 49.00,38.60 39.49,45.51" fill="#fce083"/><polygon points="49.00,38.60 58.51,45.51 54.88,56.69 43.12,56.69 39.49,45.51" fill="url(#tg)"/><line x1="50.00" y1="30.00" x2="49.00" y2="38.60" stroke="#7a4f00" stroke-opacity="0.35" stroke-width="0.50"/><line x1="69.02" y1="43.82" x2="58.51" y2="45.51" stroke="#7a4f00" stroke-opacity="0.35" stroke-width="0.50"/><line x1="61.76" y1="66.18" x2="54.88" y2="56.69" stroke="#7a4f00" stroke-opacity="0.35" stroke-width="0.50"/><line x1="38.24" y1="66.18" x2="43.12" y2="56.69" stroke="#7a4f00" stroke-opacity="0.35" stroke-width="0.50"/><line x1="30.98" y1="43.82" x2="39.49" y2="45.51" stroke="#7a4f00" stroke-opacity="0.35" stroke-width="0.50"/><polygon points="49.00,38.60 58.51,45.51 54.88,56.69 43.12,56.69 39.49,45.51" fill="none" stroke="#ffffff" stroke-opacity="0.45" stroke-width="0.60"/><polygon points="50.00,30.00 69.02,43.82 61.76,66.18 38.24,66.18 30.98,43.82" fill="none" stroke="#7a4f00" stroke-width="1.40" stroke-linejoin="round"/><path d="M45.40,42.20 Q45.40,45.40 48.60,45.40 Q45.40,45.40 45.40,48.60 Q45.40,45.40 42.20,45.40 Q45.40,45.40 45.40,42.20Z" fill="#ffffff" fill-opacity="0.9"/><ellipse cx="42" cy="26" rx="22" ry="9" fill="#ffffff" fill-opacity="0.13"/></svg>
